<?xml version="1.0" encoding="UTF-8"?>
<svg width="190px" height="199px" viewBox="0 0 190 199" version="1.1" xmlns="http://www.w3.org/2000/svg" xmlns:xlink="http://www.w3.org/1999/xlink">
    <!-- Generator: Sketch 40.2 (33826) - http://www.bohemiancoding.com/sketch -->
    <title>espresso_machine</title>
    <desc>Created with Sketch.</desc>
    <defs></defs>
    <g id="Page-1" stroke="none" stroke-width="1" fill="none" fill-rule="evenodd">
        <g id="Artboard" transform="translate(-581.000000, -260.000000)">
            <g id="espresso_machine" transform="translate(581.000000, 260.000000)">
                <g id="espresso-machine">
                    <g id="espresso-machine-espresso-machine">
                        <g id="espresso-machine-color" transform="translate(16.578947, 22.007123)">
                            <path d="M139.834362,57.3744763 L16.3892961,57.3744763 C10.3382368,57.3744763 4.72326316,55.565648 0.0329605263,52.4687741 L0.0329605263,153.298241 L152.863184,153.298241 L152.863184,54.3422681 C148.925072,56.2661229 144.518586,57.3744763 139.834362,57.3744763 L139.834362,57.3744763 Z" id="Shape" fill="#F8F4F2"></path>
                            <rect id="Rectangle-path" fill="#FFFFFF" x="41.5645461" y="0.155327062" width="73.0924342" height="38.3695176"></rect>
                            <path d="M91.8605526,140.068993 L68.7474276,140.068993 C60.4475526,140.068993 53.7233289,133.370594 53.7233289,125.115624 L53.7233289,110.301568 L106.886368,110.301568 L106.886368,125.115624 C106.886368,133.370594 100.16023,140.068993 91.8605526,140.068993 L91.8605526,140.068993 Z" id="Shape" fill="#FFFFFF"></path>
                            <path d="M91.8605526,153.298241 L68.7474276,153.298241 C60.4475526,153.298241 53.7233289,146.601965 53.7233289,138.345069 L53.7233289,126.839725 L106.886368,126.839725 L106.886368,138.345069 C106.886368,146.601965 100.16023,153.298241 91.8605526,153.298241 L91.8605526,153.298241 Z" id="Shape" fill="#A37458"></path>
                            <rect id="Rectangle-path" fill="#FFFFFF" x="130.463803" y="7.48973142" width="19.9334408" height="16.5360345"></rect>
                            <path d="M28.3108026,83.8349964 L63.8380855,83.8349964 C66.2288684,83.8349964 68.1755724,81.9010615 68.1755724,79.5167665 L68.1755724,74.9240568 C68.1755724,72.5417857 66.2288684,70.6077525 63.8380855,70.6077525 L28.3108026,70.6077525 C24.6343421,70.6077525 21.665625,73.5674159 21.665625,77.2214236 C21.665625,80.8754313 24.6343421,83.8349964 28.3108026,83.8349964 L28.3108026,83.8349964 Z" id="Shape" fill="#8C7C8E"></path>
                            <path d="M63.8380855,70.6077525 L54.8852763,70.6077525 L54.8852763,57.3744763 L101.403237,57.3744763 L101.403237,83.8349964 C101.403237,89.3181694 96.9339079,93.7593837 91.4345921,93.7593837 L64.8540197,93.7593837 C59.3546053,93.7593837 54.8852763,89.3181694 54.8852763,83.8349964 L63.8380855,83.8349964 C66.2349276,83.8349964 68.1755724,81.9010615 68.1755724,79.5167665 L68.1755724,74.9240568 C68.1755724,72.5417857 66.2349276,70.6077525 63.8380855,70.6077525 L63.8380855,70.6077525 Z" id="Shape" fill="#BCB3BE"></path>
                            <path d="M24.4497829,15.7566876 C24.4497829,22.1139954 19.2748421,27.267985 12.8892829,27.267985 C6.50370395,27.267985 1.32461842,22.1139954 1.32461842,15.7566876 C1.32461842,9.39947813 6.50370395,4.24751233 12.8892829,4.24751233 C19.2748421,4.24751233 24.4497829,9.39947813 24.4497829,15.7566876 L24.4497829,15.7566876 Z" id="Shape" fill="#8C7C8E"></path>
                        </g>
                        <g id="espresso-machine-line">
                            <path d="M172.765599,178.614076 L13.2902763,178.614076 L13.2902763,68.3125078 L18.4490329,71.7202126 C22.7622237,74.5687793 27.7830789,76.0727893 32.9682434,76.0727893 L156.413309,76.0727893 C160.428336,76.0727893 164.319809,75.1683358 167.979987,73.3797462 L172.765599,71.041902 L172.765599,178.614076 L172.765599,178.614076 L172.765599,178.614076 Z M19.9354539,171.998578 L166.120421,171.998578 L166.120421,81.2227509 C162.981414,82.1957998 159.732928,82.6884646 156.413309,82.6884646 L32.9682434,82.6884646 C28.4482303,82.6884646 24.0275724,81.7739311 19.9354539,80.0175072 L19.9354539,171.998578 L19.9354539,171.998578 L19.9354539,171.998578 Z" id="Shape" fill="#7A5742"></path>
                            <path d="M108.013539,119.075416 L81.4329671,119.075416 C74.1044211,119.075416 68.1426908,113.140153 68.1426908,105.84212 C68.1426908,104.015175 69.6290329,102.535333 71.4642237,102.535333 C73.2993355,102.535333 74.7877895,104.015175 74.7877895,105.84212 C74.7877895,109.490174 77.7666316,112.459917 81.4329671,112.459917 L108.013539,112.459917 C111.679855,112.459917 114.6585,109.490174 114.6585,105.84212 L114.6585,82.6884646 L74.7877895,82.6884646 L74.7877895,92.6148758 C74.7877895,94.4419189 73.2993355,95.9217604 71.4642237,95.9217604 C69.6290329,95.9217604 68.1426908,94.4419189 68.1426908,92.6148758 L68.1426908,76.0727893 L121.303895,76.0727893 L121.303895,105.84212 C121.303895,113.140153 115.341987,119.075416 108.013539,119.075416 L108.013539,119.075416 L108.013539,119.075416 Z" id="Shape" fill="#8C7C8E"></path>
                            <g id="Group">
                                <path d="M156.413309,79.3815996 L32.9682434,79.3815996 C16.595625,79.3815996 3.32364474,66.1725705 3.32364474,49.8766691 L3.32364474,17.355682 C3.32364474,9.59540048 9.64434868,3.30881028 17.4311645,3.30881028 L171.948375,3.30881028 C179.741349,3.30881028 186.057908,9.59540048 186.057908,17.355682 L186.057908,49.8766691 C186.057908,66.1725705 172.783914,79.3815996 156.413309,79.3815996 L156.413309,79.3815996 Z" id="Shape" fill="#FBD490"></path>
                                <path d="M156.413309,82.6884646 L32.9682434,82.6884646 C14.7888553,82.6884646 0,67.9693146 0,49.8766691 L0,17.355682 C0,7.78657214 7.81928289,0 17.4311645,0 L171.948375,0 C181.560257,0 189.381553,7.78657214 189.381553,17.355682 L189.381553,49.8766691 C189.381553,67.9693146 174.592599,82.6884646 156.413309,82.6884646 L156.413309,82.6884646 L156.413309,82.6884646 Z M17.4311645,6.61567529 C11.4835066,6.61567529 6.64517763,11.4345476 6.64517763,17.355682 L6.64517763,49.8766691 C6.64517763,64.3213392 18.4531776,76.0727893 32.9682434,76.0727893 L156.413309,76.0727893 C170.926263,76.0727893 182.736375,64.3213392 182.736375,49.8766691 L182.736375,17.355682 C182.736375,11.4345476 177.896013,6.61567529 171.948375,6.61567529 L17.4311645,6.61567529 L17.4311645,6.61567529 L17.4311645,6.61567529 Z" id="Shape" fill="#7A5742"></path>
                            </g>
                            <g id="Group" transform="translate(54.671053, 18.666756)">
                                <rect id="Rectangle-path" fill="#FFFFFF" x="3.47244079" y="3.49569399" width="73.0924342" height="38.3695176"></rect>
                                <path d="M79.8866053,45.1720963 L0.148894737,45.1720963 L0.148894737,0.188907574 L79.8866053,0.188907574 L79.8866053,45.1720963 L79.8866053,45.1720963 L79.8866053,45.1720963 Z M6.79399342,38.5584252 L73.2414079,38.5584252 L73.2414079,6.80460251 L6.79399342,6.80460251 L6.79399342,38.5584252 L6.79399342,38.5584252 L6.79399342,38.5584252 Z" id="Shape" fill="#7A5742"></path>
                            </g>
                            <g id="Group" transform="translate(40.263158, 128.898865)" fill="#B79584">
                                <path d="M68.1763421,49.7152114 L45.0632171,49.7152114 C34.9484803,49.7152114 26.7175855,41.5229812 26.7175855,31.4533272 L26.7175855,0.100938029 L86.5238882,0.100938029 L86.5238882,31.4533272 C86.5238882,41.5229812 78.2930132,49.7152114 68.1763421,49.7152114 L68.1763421,49.7152114 L68.1763421,49.7152114 Z M33.3626842,6.71680981 L33.3626842,31.4533272 C33.3626842,37.8750254 38.6106711,43.099713 45.0632171,43.099713 L68.1763421,43.099713 C74.6285724,43.099713 79.8786908,37.8750254 79.8786908,31.4533272 L79.8786908,6.71680981 L33.3626842,6.71680981 L33.3626842,6.71680981 L33.3626842,6.71680981 Z" id="Shape"></path>
                                <path d="M33.3626842,33.1753257 L16.750875,33.1753257 C7.59126316,33.1753257 0.139065789,25.7581195 0.139065789,16.6392715 C0.139065789,7.52024665 7.59126316,0.100938029 16.750875,0.100938029 L33.3626842,0.100938029 L33.3626842,33.1753257 L33.3626842,33.1753257 L33.3626842,33.1753257 Z M16.750875,6.71680981 C11.2534737,6.71680981 6.78416447,11.1682024 6.78416447,16.6392715 C6.78416447,22.1080613 11.2534934,26.5596307 16.750875,26.5596307 L26.7175855,26.5596307 L26.7175855,6.71680981 L16.750875,6.71680981 L16.750875,6.71680981 L16.750875,6.71680981 Z" id="Shape"></path>
                            </g>
                            <g id="Group" transform="translate(143.684211, 26.133459)">
                                <rect id="Rectangle-path" fill="#8C7C8E" x="3.35853947" y="3.36339581" width="19.9334408" height="16.5360345"></rect>
                                <path d="M26.615625,23.2062167 L0.0370065789,23.2062167 L0.0370065789,0.0566093947 L26.615625,0.0566093947 L26.615625,23.2062167 L26.615625,23.2062167 L26.615625,23.2062167 Z M6.68026974,16.5906397 L19.9704474,16.5906397 L19.9704474,6.67018222 L6.68026974,6.67018222 L6.68026974,16.5906397 L6.68026974,16.5906397 L6.68026974,16.5906397 Z" id="Shape" fill="#6F5B72"></path>
                            </g>
                            <path d="M89.8868684,125.688988 C88.0517566,125.688988 86.5653355,124.209343 86.5653355,122.382379 L86.5653355,119.602329 C86.5653355,117.775364 88.0517566,116.295543 89.8868684,116.295543 C91.7220592,116.295543 93.2105132,117.775364 93.2105132,119.602329 L93.2105132,122.382379 C93.2105132,124.209343 91.7220592,125.688988 89.8868684,125.688988 L89.8868684,125.688988 L89.8868684,125.688988 Z" id="Shape" fill="#8C7C8E"></path>
                            <path d="M103.179158,125.688988 C101.346178,125.688988 99.857625,124.209343 99.857625,122.382379 L99.857625,119.602329 C99.857625,117.775364 101.346178,116.295543 103.179158,116.295543 C105.014447,116.295543 106.502822,117.775364 106.502822,119.602329 L106.502822,122.382379 C106.502822,124.209343 105.014447,125.688988 103.179158,125.688988 L103.179158,125.688988 L103.179158,125.688988 Z" id="Shape" fill="#8C7C8E"></path>
                            <g id="Group" transform="translate(14.407895, 22.793092)">
                                <path d="M26.6208355,14.9707189 C26.6208355,21.3280267 21.4458947,26.4820163 15.0603355,26.4820163 C8.67475658,26.4820163 3.49567105,21.3280267 3.49567105,14.9707189 C3.49567105,8.61350945 8.67475658,3.46154365 15.0603355,3.46154365 C21.4458947,3.46154365 26.6208355,8.61350945 26.6208355,14.9707189 L26.6208355,14.9707189 Z" id="Shape" fill="#8C7C8E"></path>
                                <path d="M15.0603355,29.7888027 C6.85170395,29.7888027 0.174138158,23.142907 0.174138158,14.9707189 C0.174138158,6.80067267 6.85170395,0.152733365 15.0603355,0.152733365 C23.2668355,0.152733365 29.9424671,6.80067267 29.9424671,14.9707189 C29.9424671,23.142907 23.2668355,29.7888027 15.0603355,29.7888027 L15.0603355,29.7888027 L15.0603355,29.7888027 Z M15.0603355,6.76833006 C10.5159474,6.76833006 6.81933553,10.4466046 6.81933553,14.9707189 C6.81933553,19.4949315 10.5159474,23.1752299 15.0603355,23.1752299 C19.6025921,23.1752299 23.2972697,19.4949315 23.2972697,14.9707189 C23.2972697,10.4466046 19.6025921,6.76833006 15.0603355,6.76833006 L15.0603355,6.76833006 L15.0603355,6.76833006 Z" id="Shape" fill="#6F5B72"></path>
                            </g>
                            <g id="Group" transform="translate(71.447368, 31.635240)" fill="#8C7C8E">
                                <polygon id="Shape" points="46.3686711 6.69993113 0.118243421 6.69993113 0.118243421 0.0843344402 46.3686711 0.0843344402"></polygon>
                                <polygon id="Shape" points="18.6179803 20.1290314 0.118243421 20.1290314 0.118243421 13.5134347 18.6179803 13.5134347"></polygon>
                                <polygon id="Shape" points="46.3686711 20.1290314 32.4923487 20.1290314 32.4923487 13.5134347 46.3686711 13.5134347"></polygon>
                            </g>
                            <path d="M80.4170329,109.151009 L71.4642237,109.151009 C69.6290329,109.151009 68.1426908,107.669163 68.1426908,105.84212 C68.1426908,104.015175 69.6290329,102.535333 71.4642237,102.535333 L80.4170329,102.535333 C80.9766513,102.535333 81.4329671,102.081142 81.4329671,101.52389 L81.4329671,96.93118 C81.4329671,96.3739479 80.9766513,95.9217604 80.4170329,95.9217604 L71.4642237,95.9217604 C69.6290329,95.9217604 68.1426908,94.4419189 68.1426908,92.6148758 C68.1426908,90.7879309 69.6290329,89.3080894 71.4642237,89.3080894 L80.4170329,89.3080894 C84.6409934,89.3080894 88.0760526,92.7279963 88.0760526,96.93118 L88.0760526,101.52389 C88.0760526,105.729097 84.6409934,109.151009 80.4170329,109.151009 L80.4170329,109.151009 L80.4170329,109.151009 Z" id="Shape" fill="#6F5B72"></path>
                            <path d="M80.4170329,109.151009 L44.88975,109.151009 C39.3923487,109.151009 34.9210066,104.699537 34.9210066,99.2285468 C34.9210066,93.7575563 39.3923487,89.3080894 44.88975,89.3080894 L80.4170329,89.3080894 C84.6409934,89.3080894 88.0760526,92.7279963 88.0760526,96.93118 L88.0760526,101.52389 C88.0760526,105.729097 84.6409934,109.151009 80.4170329,109.151009 L80.4170329,109.151009 L80.4170329,109.151009 Z M44.88975,95.9217604 C43.0565724,95.9217604 41.5661053,97.4055318 41.5661053,99.2285468 C41.5661053,101.051562 43.0565724,102.535333 44.88975,102.535333 L80.4170329,102.535333 C80.9766513,102.535333 81.4329671,102.081142 81.4329671,101.52389 L81.4329671,96.93118 C81.4329671,96.3739479 80.9766513,95.9217604 80.4170329,95.9217604 L44.88975,95.9217604 L44.88975,95.9217604 L44.88975,95.9217604 Z" id="Shape" fill="#6F5B72"></path>
                            <g id="Group" transform="translate(0.000000, 171.930650)">
                                <path d="M186.057908,23.2196568 L3.32364474,23.2196568 L3.32364474,14.5690103 C3.32364474,8.38353501 8.35867105,3.37471375 14.5678618,3.37471375 L174.815803,3.37471375 C181.018836,3.37471375 186.057908,8.38353501 186.057908,14.5690103 L186.057908,23.2196568 L186.057908,23.2196568 Z" id="Shape" fill="#8C7C8E"></path>
                                <path d="M189.381553,26.5264432 L0,26.5264432 L0,14.5690103 C0,6.57250596 6.53571711,0.0679273438 14.5678618,0.0679273438 L174.815803,0.0679273438 C182.845836,0.0679273438 189.381553,6.57250596 189.381553,14.5690103 L189.381553,26.5264432 L189.381553,26.5264432 L189.381553,26.5264432 Z M6.64517763,19.9128704 L182.736375,19.9128704 L182.736375,14.5690103 C182.736375,10.2225838 179.183743,6.68342579 174.815803,6.68342579 L14.5678618,6.68342579 C10.1999408,6.68342579 6.64517763,10.2225838 6.64517763,14.5690103 L6.64517763,19.9128704 L6.64517763,19.9128704 L6.64517763,19.9128704 Z" id="Shape" fill="#6F5B72"></path>
                            </g>
                        </g>
                    </g>
                </g>
            </g>
        </g>
    </g>
</svg>